<svg width="31" height="31" viewBox="0 0 31 31" fill="none" xmlns="http://www.w3.org/2000/svg">
<path d="M11.0714 14.3929L13.2857 18.8214H17.7143L19.9286 14.3929L15.5 11.0714L11.0714 14.3929Z" fill="#091E57"/>
<path d="M15.5 2.21429C12.8723 2.21429 10.3037 2.99348 8.11887 4.45333C5.93404 5.91319 4.23118 7.98813 3.22562 10.4158C2.22005 12.8434 1.95695 15.5147 2.46958 18.0919C2.98221 20.6691 4.24756 23.0364 6.1056 24.8944C7.96364 26.7525 10.3309 28.0178 12.9081 28.5304C15.4853 29.0431 18.1566 28.78 20.5842 27.7744C23.0119 26.7688 25.0868 25.066 26.5467 22.8811C28.0065 20.6963 28.7857 18.1277 28.7857 15.5C28.7819 11.9776 27.381 8.60052 24.8902 6.10979C22.3995 3.61906 19.0224 2.2181 15.5 2.21429ZM24.4324 22.0133L20.1854 21.9491L18.9322 26.0179C16.703 26.752 14.2971 26.752 12.0679 26.0179L10.8146 21.9491L6.56759 22.0133C5.17872 20.1256 4.42929 17.8436 4.42859 15.5V15.4923L7.9183 13.0366L6.54434 9.01657C7.91979 7.11677 9.86094 5.70072 12.09 4.97107L15.5 7.52857L18.91 4.97107C21.1391 5.70072 23.0802 7.11677 24.4557 9.01657L23.0817 13.0366L26.5714 15.4923V15.5C26.5707 17.8436 25.8213 20.1256 24.4324 22.0133Z" fill="#091E57"/>
</svg>
