<svg width="31" height="31" viewBox="0 0 31 31" fill="none" xmlns="http://www.w3.org/2000/svg">
<path d="M13.2857 27.6786C13.2882 27.2346 13.3809 26.7958 13.5581 26.3887C11.2954 25.9867 9.21421 24.8896 7.60389 23.25L9.21478 21.8971C9.3783 21.7596 9.49855 21.5777 9.56102 21.3734C9.62349 21.1691 9.62552 20.9511 9.56685 20.7456L8.79185 18.0088C8.74318 17.8399 8.65558 17.6848 8.5361 17.556L7.16767 16.0934L6.96064 15.7402L7.66921 15.1346L10.4227 13.7419C10.5808 13.6619 10.7174 13.5452 10.8211 13.4014C10.9247 13.2577 10.9924 13.0912 11.0183 12.9159L11.4612 9.88236C11.486 9.71876 11.4738 9.55169 11.4255 9.39344C11.3772 9.23518 11.2941 9.08975 11.1822 8.96786L9.35649 7.01928C9.32428 6.98392 9.28949 6.95099 9.25242 6.92075L8.90035 6.63178C10.6779 5.30258 12.8162 4.54259 15.0339 4.45182L15.5299 5.27664L16.1787 7.17318C16.2471 7.37076 16.3695 7.54526 16.5319 7.67693L19.0606 9.71075C19.2573 9.86909 19.5023 9.95542 19.7548 9.95543C19.7984 9.95561 19.8421 9.95302 19.8854 9.94768L23.2069 9.55353C23.3528 9.53586 23.4939 9.48958 23.622 9.41736C24.0837 9.18375 24.6384 9.47271 24.7292 9.41736C24.8366 9.30741 24.9357 9.18974 25.0259 9.06528C25.3956 8.58361 25.8909 8.21317 26.4574 7.99468C25.2152 6.17895 23.5412 4.70033 21.5861 3.69173C19.6309 2.68313 17.4557 2.17615 15.2561 2.21636C13.0564 2.25657 10.9012 2.84271 8.9842 3.92209C7.06718 5.00148 5.4484 6.54028 4.27335 8.4002C3.0983 10.2601 2.40381 12.3829 2.25229 14.5777C2.10078 16.7724 2.49699 18.9705 3.40532 20.9742C4.31364 22.978 5.70562 24.7246 7.45614 26.0572C9.20665 27.3898 11.2608 28.2665 13.4341 28.6086C13.3405 28.3072 13.2906 27.9941 13.2857 27.6786Z" fill="#091E57"/>
<path d="M28.0284 10.0052C27.8079 9.93198 27.5698 9.92998 27.3481 9.99953C27.1263 10.0691 26.9321 10.2066 26.7929 10.3927C26.1273 11.2926 25.2594 12.0233 24.2593 12.5258C23.2592 13.0283 22.155 13.2886 21.0357 13.2857C19.5681 13.2875 18.1611 13.8713 17.1233 14.909C16.0855 15.9468 15.5018 17.3538 15.5 18.8214C15.5023 20.0529 15.9197 21.2476 16.6846 22.2126C16.9043 20.5304 17.6752 18.9684 18.8768 17.7707C18.9789 17.665 19.1011 17.5807 19.2362 17.5226C19.3712 17.4646 19.5165 17.4341 19.6635 17.4328C19.8105 17.4315 19.9563 17.4595 20.0924 17.5152C20.2284 17.5709 20.3521 17.6531 20.456 17.757C20.56 17.861 20.6422 17.9846 20.6978 18.1207C20.7535 18.2567 20.7815 18.4025 20.7802 18.5495C20.779 18.6965 20.7484 18.8418 20.6904 18.9769C20.6324 19.1119 20.548 19.2341 20.4423 19.3362C19.9267 19.849 19.518 20.459 19.2398 21.1308C18.9616 21.8026 18.8194 22.5229 18.8214 23.25V24.3571C18.8214 24.9444 18.5881 25.5076 18.1729 25.9229C17.7576 26.3381 17.1944 26.5714 16.6071 26.5714C16.3135 26.5714 16.0319 26.6881 15.8243 26.8957C15.6166 27.1033 15.5 27.3849 15.5 27.6786C15.5 27.9722 15.6166 28.2538 15.8243 28.4614C16.0319 28.6691 16.3135 28.7857 16.6071 28.7857C17.7817 28.7857 18.9081 28.3191 19.7386 27.4886C20.5691 26.6581 21.0357 25.5317 21.0357 24.3571C23.0904 24.3548 25.0603 23.5375 26.5132 22.0846C27.9661 20.6317 28.7834 18.6618 28.7857 16.6071V11.0559C28.7858 10.8235 28.7127 10.5969 28.5767 10.4083C28.4408 10.2197 28.249 10.0787 28.0284 10.0052Z" fill="#091E57"/>
</svg>
